<svg xmlns="http://www.w3.org/2000/svg" fill= "white" height="24" viewBox="0 -960 960 960" width="24"><path d="M246-146v-28h200v-132h-26q-72.21 0-123.105-50.895Q246-407.79 246-480q0-53.801 31.5-97.901Q309-622 360-642q0-43 35-66t73-6l-28-76 38-14-14-38 38-14 14 38 34-12 96 262-34 14 14 38-38 14-14-38-38 16-26-76q-11 18-29.5 29T440-560q-26 0-46.5-15T364-614q-41 17-65.5 53T274-480q0 60.833 42.583 103.417Q359.167-334 420-334h294v28H474v132h240v28H246Zm308-416 56-22-76-210-58 20 78 212Zm-114.07-26Q462-588 477-602.93t15-37Q492-662 477.07-677t-37-15Q418-692 403-677.07t-15 37Q388-618 402.93-603t37 15ZM554-562Zm-114-78Zm0 0Z"/></svg>