<svg xmlns="http://www.w3.org/2000/svg" fill= "white" height="24" viewBox="0 -960 960 960" width="24"><path d="M624-472 478-611q-25-24-41.5-53.892Q420-694.784 420-730q0-40.833 28.583-69.417Q477.167-828 518-828q33 0 59.5 19t46.5 45q20-26 46.5-45t59.5-19q40.833 0 69.417 28.583Q828-770.833 828-730q0 35.216-16.5 65.108Q795-635 770-611L624-472Zm0-38 123-117q22-21 37.5-47t15.5-56q0-29-20.5-49.5T730-800q-27 0-48 17t-38 39l-20 26-20-26q-17-22-38-39t-48-17q-29 0-49.5 20.5T448-730q0 30 15.5 56t37.5 47l123 117ZM249-212l310 92 240-74q0-21-9.806-29.5Q779.387-232 767-232H580.878Q556-232 534-234t-45-10l-86-28 11-28 81 30q20 8 45 9t67 1q0-21-7-33t-21-17l-229-84q-3-1-5.5-1.5t-5.5-.5h-90v184Zm-136 80v-292h224.823q5.177 0 10.777 1.2T359-420l230 84q18 7 32 25.5t14 50.5h132q32 0 46.5 19.5T828-192v20L561-90l-312-92v50H113Zm28-28h80v-236h-80v236Zm483-558Z"/></svg>