<svg xmlns="http://www.w3.org/2000/svg" fill="#ffffff" height="24" viewBox="0 -960 960 960" width="24"><path d="M633.235-420Q600-420 576.5-443.265q-23.5-23.264-23.5-56.5Q553-533 576.265-556.5q23.264-23.5 56.5-23.5Q666-580 689.5-556.735q23.5 23.264 23.5 56.5Q713-467 689.735-443.5q-23.264 23.5-56.5 23.5ZM433-220v-36q0-10.678 5.5-20.339Q444-286 453-292q41-23 85.71-35.5Q583.42-340 633-340q49.58 0 94.29 12.5Q772-315 813-292q9 6 14.5 15.661T833-256v36H433Zm28-44v16h344v-16q-41-23-84.5-35.5T633-312q-44 0-87.5 12.5T461-264Zm172-184q21 0 36.5-15.5T685-500q0-21-15.5-36.5T633-552q-21 0-36.5 15.5T581-500q0 21 15.5 36.5T633-448Zm0-52Zm0 252ZM166-426v-28h268v28H166Zm0-320v-28h428v28H166Zm309 160H166v-28h328q-5 7-10 13.5t-9 14.5Z"/></svg>