<svg xmlns="http://www.w3.org/2000/svg" height="24" viewBox="0 -960 960 960" width="24"><path d="M480-578q-44.55 0-76.275-31.725Q372-641.45 372-686q0-44.55 31.725-76.275Q435.45-794 480-794q44.55 0 76.275 31.725Q588-730.55 588-686q0 44.55-31.725 76.275Q524.55-578 480-578Zm0-28q33 0 56.5-23.5T560-686q0-33-23.5-56.5T480-766q-33 0-56.5 23.5T400-686q0 33 23.5 56.5T480-606ZM212-186v-184q0-22 13.281-41.521Q238.562-431.041 262-442q50-24 107-38t111-14q54 0 111 14t107 38q23.438 10.959 36.719 30.479Q748-392 748-369.938V-246q0 26-17 43t-43 17H416q-32 0-53-21t-21-53q0-32 21-53t53-21h126l59-115q-29-9-63-13t-58-4q-53 0-104.5 12.5T276-418q-17 8-26.5 21t-9.5 27v184h-28Zm204-28h66l46-92H416q-19 0-32.5 13.5T370-260q0 19 13.5 32.5T416-214Zm97 0h175q14 0 23-9t9-23v-124q0-14-10.5-27T684-418q-13-7-27.5-12.5T628-441L513-214Zm-33-472Zm0 356Z"/></svg>